# xmcd CD database file
# Copyright (C) 1993-1998 Ti Kan
#
# Track frame offsets:
# 150
# 12809
# 20401
# 34669
# 47647
# 59427
# 72592
# 83771
# 98096
# 112692
# 126653
# 139935
# 153379
# 167210
# 180157
# 192832
# 205227
# 217758
# 230599
# 243932
# 257031
# 270643
# 284613
# 298852
#
# Disc length: 4140 seconds
#
# Revision: 0
# Processed by: cddbd v1.4b41PL1 Copyright (c) Steve Scherf et al.
# Submitted via: inCDius 1.1b5
#
DISCID=5a102a18
DTITLE=Various Artist - Too Late, Too Late Vol. 4 1892-1937
DYEAR=1900
DGENRE=
TTITLE0=Brudder Rasmus - Louis Vasnier
TTITLE1=Southern Blues - Unknowns
TTITLE2=I Got What It Takes But It Break My Heart To Give It Away - Pa
TTITLE3=Hot Papa Blues - Papa Charlie Jackson
TTITLE4=Mama, Don't You Think I Know - Papa Charlie Jackson
TTITLE5=Gay Cattin' - Papa Charlie Jackson
TTITLE6=Teddy Bear Blues - Blind Lemon Jefferson
TTITLE7=Mr. Moore Blues - Ida May Mack
TTITLE8=When You Lose You Daddy - Ida May Mack
TTITLE9=You Got Me In This Mess - Georgia Tom
TTITLE10=Saturday Night Rub - Big Bill
TTITLE11=Pig Meat Strut - Big Bill
TTITLE12=All Night Long Blues - Sweet Papa Tadpole
TTITLE13=Black Spider Blues - Sweet Papa Tadpole
TTITLE14=Wepp And Moan When I'm Gone - Sweet Papa Tadpole
TTITLE15=Nok-Em All - Eddie and Oscar
TTITLE16=Flying Crow Blues - Eddie and Oscar
TTITLE17=Death Room Blues - Bond Willie McTell
TTITLE18=Lord, Send Me An Angel - Blind Willie McTell
TTITLE19=Doin' The Best I Can - Peetie Wheatstraw
TTITLE20=Where The Sweet Old Oranges Grow - Sam Montgomery
TTITLE21=Keyhole Blues - Casey Bill Weldon
TTITLE22=Family Trouble Blues - Andrew Hogg
TTITLE23=Kind-hearted Blues - Andrew Hogg
EXTD=
EXTT0=
EXTT1=
EXTT2=
EXTT3=
EXTT4=
EXTT5=
EXTT6=
EXTT7=
EXTT8=
EXTT9=
EXTT10=
EXTT11=
EXTT12=
EXTT13=
EXTT14=
EXTT15=
EXTT16=
EXTT17=
EXTT18=
EXTT19=
EXTT20=
EXTT21=
EXTT22=
EXTT23=
PLAYORDER=
